<?xml version="1.0" encoding="utf-8"?>
<!-- Generator: Adobe Illustrator 21.1.0, SVG Export Plug-In . SVG Version: 6.00 Build 0)  -->
<svg version="1.1" id="Layer_1" xmlns="http://www.w3.org/2000/svg" xmlns:xlink="http://www.w3.org/1999/xlink" x="0px" y="0px"
	 viewBox="0 0 34 34" style="enable-background:new 0 0 34 34;" xml:space="preserve">
<style type="text/css">
	.st0{fill:#F50057;}
</style>
<g>
	<g>
		<path class="st0" d="M21.2,1c0.9,0,1.7,0,2.6,0.1c0.6,0,1.1,0.1,1.6,0.2v5.2c-0.2,0-0.3,0-0.4,0c-0.6,0-1.1,0-1.7,0
			c-0.4,0-0.8,0-1.3,0c-1.4,0-2.4,0.6-2.4,2.3c0,1.2-0.1,3.9-0.1,4.1c0.1,0,1.4,0,2.8,0c0.7,0,1.3,0,1.8,0c0.4,0,0.7,0,1.1,0
			c-0.3,2-0.5,3.9-0.8,5.8h-4.9L19.3,33h-6l0.1-14.5H8.6v-5.8h4.9v-0.4c0-1.2,0-2.3,0-3.5c0-0.7,0.1-1.5,0.2-2.2
			c0.3-1.8,1.2-3.2,2.6-4.3C17.7,1.4,19.1,1,20.7,1C20.9,1,21,1,21.2,1z"/>
	</g>
</g>
</svg>
