<?xml version="1.0" encoding="utf-8"?>
<!-- Generator: Adobe Illustrator 21.1.0, SVG Export Plug-In . SVG Version: 6.00 Build 0)  -->
<svg version="1.1" id="Layer_1" xmlns="http://www.w3.org/2000/svg" xmlns:xlink="http://www.w3.org/1999/xlink" x="0px" y="0px"
	 viewBox="0 0 34 34" style="enable-background:new 0 0 34 34;" xml:space="preserve">
<style type="text/css">
	.st0{fill:#F50057;}
</style>
<g>
	<g>
		<path class="st0" d="M31.6,10.2c1.1,2.8,1,13.2-0.3,15.9c-0.4,0.7-0.9,1.3-1.6,1.7c-1,0.5-6.9,0.8-12.7,0.8
			c-5.3,0-10.5-0.2-11.8-0.6c-1.1-0.4-1.9-1.1-2.3-2.2C2,23,1.8,11.4,3.7,9.2C4.4,8.4,5.2,8,6.2,7.9C8.6,7.6,13,7.5,17.4,7.5
			c5.5,0,10.9,0.2,11.9,0.6C30.4,8.4,31.2,9.1,31.6,10.2z M13.6,22.6c3.1-1.6,6.2-3.2,9.4-4.9c-3.1-1.6-6.2-3.3-9.3-4.9
			C13.6,16.1,13.6,19.3,13.6,22.6"/>
	</g>
</g>
</svg>
