<?xml version="1.0" encoding="utf-8"?>
<!-- Generator: Adobe Illustrator 21.1.0, SVG Export Plug-In . SVG Version: 6.00 Build 0)  -->
<svg version="1.1" id="Layer_1" xmlns="http://www.w3.org/2000/svg" xmlns:xlink="http://www.w3.org/1999/xlink" x="0px" y="0px"
	 viewBox="0 0 34 34" style="enable-background:new 0 0 34 34;" xml:space="preserve">
<style type="text/css">
	.st0{fill:#F50057;}
</style>
<g>
	<g>
		<path class="st0" d="M24.6,7.9L24.6,7.9c1,0,1.8,0.8,1.8,1.8s-0.8,1.7-1.8,1.7s-1.7-0.8-1.7-1.8C22.8,8.7,23.6,7.9,24.6,7.9z"/>
	</g>
	<g>
		<path class="st0" d="M31.1,10.2c0.2,2.3,0.4,13.1-0.3,15.7c-0.9,3.3-3.1,5.3-6.4,5.8c-1.3,0.2-4.7,0.3-8,0.3
			c-3.5,0-6.9-0.1-8.1-0.4c-3.3-0.9-5.3-3-5.8-6.4C2,22.8,2,11.4,2.7,8.9c0.9-3.2,3.1-5.1,6.4-5.7c1.5-0.2,4.4-0.3,7.3-0.3
			c2.7,0,5.5,0.1,7.1,0.2c2,0.1,3.8,0.7,5.3,2.2C30.2,6.6,30.9,8.3,31.1,10.2z M28.3,24.8c0.4-2.6,0.4-11.9,0.2-14.3
			c-0.3-2.6-1.8-4.3-4.4-4.6c-1.3-0.2-4.3-0.3-7.3-0.3c-2.9,0-5.8,0.1-7.1,0.2C7.2,6,5.5,7.6,5.1,10.1C4.7,12.8,4.7,22.8,5,24.8
			c0.3,2.1,1.5,3.5,3.6,4.1c1.1,0.3,4.5,0.4,7.8,0.4c3.1,0,6.1-0.1,7.2-0.2C26.2,28.9,27.9,27.3,28.3,24.8"/>
	</g>
	<g>
		<path class="st0" d="M16.8,10c4.1,0,7.4,3.3,7.4,7.5c0,4.1-3.4,7.5-7.5,7.5s-7.4-3.3-7.4-7.5C9.3,13.3,12.7,10,16.8,10z
			 M16.7,22.3c2.7,0,4.8-2.1,4.9-4.8c0-2.7-2.1-4.9-4.8-4.9l0,0c-2.7,0-4.8,2.1-4.9,4.8C11.8,20.1,14,22.3,16.7,22.3L16.7,22.3"/>
	</g>
</g>
</svg>
