<?xml version="1.0" encoding="utf-8"?>
<!-- Generator: Adobe Illustrator 21.1.0, SVG Export Plug-In . SVG Version: 6.00 Build 0)  -->
<svg version="1.1" id="Layer_1" xmlns="http://www.w3.org/2000/svg" xmlns:xlink="http://www.w3.org/1999/xlink" x="0px" y="0px"
	 viewBox="0 0 481.3 148" style="enable-background:new 0 0 481.3 148;" xml:space="preserve">
<style type="text/css">
	.st0{fill:#FBE7BF;}
	.st1{fill:#2B2116;}
	.st2{fill:#C19F77;}
	.st3{fill:#2C2116;}
	.st4{fill:#342B20;}
	.st5{fill:#4C4132;}
	.st6{fill:#2F2519;}
	.st7{fill:#493E31;}
	.st8{fill:#5B4B43;}
	.st9{fill:#C2986B;}
	.st10{fill:#C5E5F5;}
	.st11{fill:#A9CEDC;}
	.st12{fill:#ADDBEF;}
	.st13{fill:#AED9EB;}
	.st14{fill:#4E3C2A;}
	.st15{fill:#DFCBA8;}
	.st16{fill:#A9D0E0;}
	.st17{fill:#DBC7A4;}
	.st18{fill:#E9D3AD;}
	.st19{fill:#DAC6A4;}
	.st20{fill:#F7E2BB;}
	.st21{fill:#E9D1AB;}
	.st22{fill:#BCA98D;}
	.st23{fill:#5C6360;}
	.st24{fill:#E2CDA9;}
	.st25{fill:#726659;}
	.st26{fill:#9A8479;}
	.st27{fill:#B9AC93;}
	.st28{fill:#3C3126;}
	.st29{fill:#E7D3AF;}
	.st30{fill:#D7C3A3;}
	.st31{fill:#D8C4A2;}
	.st32{fill:#E3CFAD;}
	.st33{fill:#F0DAB4;}
	.st34{fill:#A18E78;}
	.st35{fill:#837262;}
</style>
<g>
	<path class="st0" d="M50,137.4c-1.7-2.1-4-2.9-6.4-3.9c-21.6-8.6-30.4-25.9-31.6-47.8C10.8,62.2,22.2,45,42.2,34.2
		C73,17.4,106,6,141.7,8c20.8,1.2,40.4,8.8,55.4,24.1c17.3,17.6,14.8,48.8,5.2,66.6c-7.1,13.1-18.3,22-32.6,26.8
		c-0.8-11.9,0.9-23.1,9.4-32.1c8.1-8.6,8.2-8.7,0-16.7c-5.6-5.5-5.2-13.3,1-19.9c9.9-4.6,10.1-8.7,1.8-15.4
		c-6.2-5-12.2-8.2-19.6-2.9c-3.2,1.9-7,1.4-10.4,2.6c-3.5,1.2-5.8,3.8-7.4,7.1c-2.5,4.4-5.8,8.4-5,14.1c0.6,4.4,2.7,6.9,7.2,7.5
		c7.2,0.9,9.3,3.6,7.1,10.2c-2.2,6.8-7.1,11.9-12.4,16.1c-4.3,3.5-5.9-0.9-5.9-4.3c0.1-7.8-1-15.2-4.1-22.3c-1-3.1-2.7-5.7-5.8-7.1
		c-4.9-10.8-13.3-17.5-24.5-20.8C65.5,30.3,27.3,66.6,34.6,105c1.6,8.6,6.2,15.4,12.4,21.4C50,129.3,53.8,132.5,50,137.4z"/>
	<path class="st1" d="M132.4,67.4c2.7,4.4,4.3,9.2,4.8,14.3c0.4,4.7,0.1,9.4,0.9,14.4c5.8-6.9,15.2-11.2,14.6-22.2
		c-0.1-1.9,0.4-4.5-3.2-2.9c-4.3,1.9-8.1,1-10.6-3c-3-4.7-2.7-9.7-0.2-14.5c1.4-2.7,3.3-5.1,4.9-7.6c1.3-0.2,1.9,0.7,2.4,1.7
		c0.2,0.7,0.3,1.4,0.2,2.1c-0.4,3.3-2.9,6-2.5,9.5c0.2,1.8,0.4,3.7,2.4,4.4c2.1,0.7,3.3-0.8,4.4-2.2c1.6-2,2.6-4.4,3.6-6.7
		c1.4-2.6,3.9-3.9,6.1-5.5c1.4-1,2.6-2.3,4.4-2.5c3.4,0.4,7.5-3.3,10.1,1.8c0.9,0.9,1.8,1.8,2.7,2.7c0.9,0.9,1.6,1.9,2.3,2.9
		c0.7,1.2,2.3,2,1.8,3.8c-6.1,5.7-5.8,14,0.5,18.4c4.5,3.2,8.8,8.1,3.7,12.3c-12.1,9.8-13.4,23.5-16,36.9
		c-4.7,14.2-16.7,14.7-28.4,14.8c-13.9,0.1-27.8-0.9-41.7-0.9c-12.6,0-25.3,0.7-37.9,0.9c-2.1,0-5.5,1.6-5.8-2.7
		c0.2-0.5,0.6-0.7,1.1-0.6c-1.4-1.5-2.4-0.3-3.6,0.5c-1.2,1.4-2.3,1.1-3.4-0.1c-0.3-2.6,1-5.4-2-7.5c-19.4-13.6-20.8-41.7-8.4-63.2
		c13.2-22.9,41-34.8,62.5-26.7c0.1,3.5-2.2,3.9-4.9,3.9c-8.5-1.4-16.8-0.7-24.9,2c-3.3,0.8-6.4,2.1-8.8,4.6c-0.5,0.4-1,0.8-1.5,1.2
		c-1.9,1.1-3.5,2.5-4.8,4.3c-1.1,1.5-2.1,3.2-3.3,4.7c-3,3.6-5.2,7.7-7.7,11.6c-2,1.9-3.2,4.3-3.3,7.1c-1.4,5-3.6,9.8-2.8,15.2
		c-0.2,3.9,1.2,7.5,1.7,11.2c8.1,18.8,24.5,26.8,45.5,21.3c11.9-3.1,22.6-9.1,32.2-16.8c13.3-10.6,15.2-24.4,10.5-39.8
		C130.1,69.2,130.1,67.4,132.4,67.4z"/>
	<path class="st2" d="M53.4,137.5c1.3-7.5,4.3,1,6.1-1.2c-0.9,2-2.4,1.3-3.7,1.3C54.9,138.5,54.2,138,53.4,137.5z"/>
	<path class="st3" d="M97.7,42.9c2-0.1,3.5-1,4.4-2.8c11.4,3.2,20.5,9.1,24.5,21c1.3,1.5,2.6,3.1,2.4,5.3
		c1.3,13.3-1.6,24.9-12.1,34.3c-13.1,11.8-30.4,12.9-42.7,1.7c-12.5-11.3-14.2-31.9-3.5-45c4.7-5.7,9.8-11.1,16.9-13.9
		c1.8-0.7,3.9-0.5,5.7-1.2C94.8,42.2,96.4,41.7,97.7,42.9z"/>
	<path class="st4" d="M181.5,57.9c-1-1-2-2-2.9-3c1.1-1.6,3.5-2.1,4-4.6c-2.6-0.9-3.9,2.1-6.1,1.7c-1-0.6-2-1.2-3-1.8
		c3.7-9.4,1.8-11.5-10-10.9c-1.1-0.4-2-0.9-1.7-2.3c7.2-5.1,12.8-4.8,18.9,1c1.1,1,2,2.8,3.3,3c4.7,1,6.3,4.3,5.9,8.4
		C189.4,54.2,186.6,57.3,181.5,57.9z"/>
	<path class="st5" d="M128.1,65.6c-0.5-1.5-1-3.1-1.4-4.6c4.5-0.2,4.3,3.9,5.8,6.4c-0.4,1-0.9,2-1.3,3
		C127.9,70.2,127.6,68.1,128.1,65.6z"/>
	<path class="st6" d="M145,47.5c-0.4-0.5-0.9-1-1.3-1.5c1.3-3.3,3.6-5.5,7.1-6.3c1.5-0.8,1.9,0.1,2.3,1.3
		C151.2,44.1,148.9,46.8,145,47.5z"/>
	<path class="st7" d="M152.5,41.1c-0.6-0.5-1.2-0.9-1.7-1.4c3.1-3.1,7.6-0.6,11-2.6c0.6,0.5,1.1,0.9,1.7,1.4c0.3,0.9,0,1.6-0.7,2.1
		C159.4,41.7,156.1,43.6,152.5,41.1z"/>
	<path class="st8" d="M128.1,65.6c1,1.6,2,3.2,3,4.8c6.8,15.7,3.4,30.5-10.7,41.9c-12.8,10.3-27.3,17.9-44,18.8
		c-13.8,0.8-28.2-5.5-36.7-24.4c-0.3-3.9,3.1-8.1-1.4-11.5c-1.9-6.4,1.6-11.8,3-17.6c1.7-1.9,4.4-3.2,4.2-6.4
		c1.3-4.8,3.7-8.8,7.8-11.6c1.1-0.8,2.3-1.4,3.7-1.5c0.2-0.5,1.7,1,1.1-0.8c-0.6-0.6-0.9-1.3-0.7-2.2c1.1-1.5,2.5-2.8,3.4-4.5
		c0.5,0,1,0,1.5-0.1c2.9-1.8,5.7-3.8,9-4.7c3.7-1.3,7.4-2.6,11.4-3c2,0.1,4.2-0.3,5.7,1.5c-9,6.2-17.6,12.5-21.1,23.8
		c-5.8,18.6,3.2,34.9,22.2,39.4c15.2,3.6,33.6-9.8,37.3-26.1C127.9,76.1,125.3,70.7,128.1,65.6z"/>
	<path class="st9" d="M158.6,81.4c5-0.7,10-1.4,15-2.2c3.8-0.6,6.6,1,8.4,3.9c1.9,3-1.3,4.7-3,6.1c-7.6,6.4-9.8,15.1-11.1,24.3
		c-0.5,3.8-1.3,7.5-2.4,11.1c-2.2,6.9-6.9,10.7-14.5,11.6c-10.1,1.1-20.3,1-30.4,1.3c-8.1-1.6-16.3-0.2-24.5-0.8
		c-1.5-0.1-4.1,1.4-4.1-2c13.9-4.5,25.6-12.9,36.8-21.8c5.5-4.4,9.9-10.1,14.8-15.1c2.8-1.8,4.9-4.3,6.9-7
		C153.1,87.5,155.2,83.9,158.6,81.4z"/>
	<path class="st10" d="M159.4,77.6c-5-0.7-3.1-7.2-4.7-11c-1.4-3.5,9.4-14.7,13-14.6c4.4,0.2,8.6,1.7,8.8,6.4
		C177,73.1,173.2,77.6,159.4,77.6z"/>
	<path class="st11" d="M152.5,41.1c3.6-0.4,7.1-0.8,10.7-1.3c1,0.8,1.2,1.9,1.1,3.2c-0.7,2.5-1.3,5.1-2.8,7.4
		c-2.1,1.6-4.3,3.2-6.4,4.8c-5.5,1.5-8.3-1.3-9.9-6.1c-0.1-0.5-0.1-1.1-0.2-1.6C147.2,45,149.4,42.5,152.5,41.1z"/>
	<path class="st12" d="M145.2,49.1c2.6,3.2,6,5.1,9.9,6.1c0.5,5.6-3.2,8.7-7.1,11.5c-1.8,1.3-3.5,0.2-4.5-1.4
		c-3.1-4.6-2.2-9,0.5-13.5C144.4,51,144.8,50,145.2,49.1z"/>
	<path class="st13" d="M163.2,42.9c0-1-0.1-2.1-0.1-3.1c0.1-0.5,0.2-0.9,0.4-1.4c3.1-0.9,6.1-2.1,9.5-0.5c3,1.5,4.8,3.7,5.5,6.7
		c0.9,4-3.1,3.9-4.9,5.6c-1.5-0.6-0.7-6.8-4.7-1.9c-1,1.3-3.2,1.2-4.5-0.7C163.2,46.3,161.7,45,163.2,42.9z"/>
	<path class="st14" d="M92,134.8c4.5,3.4,9.7,0.9,14.5,1.6c4.7,0.7,9.6-1.2,14.1,1.1c-11.2,0-22.4,0-33.6,0
		c-0.1-0.4-0.2-0.7-0.3-1.1C88.5,135.9,90.3,135.3,92,134.8z"/>
	<path class="st15" d="M82.3,44.2c-3.6,1-7.2,1.9-10.8,2.9c-1.1-0.5-1.8-1.2-1.4-2.5c9.1-2.8,18.1-6.2,27.7-1.7
		c-1.3,0-2.6,0.1-4,0.1C90.1,44.4,86,42.7,82.3,44.2z"/>
	<path class="st16" d="M176.6,52.1c0.4-0.6,0.8-1.3,1.3-1.7c1.9-1.4,2.9-4.6,6-3.6c1.4,0.4,2.1,2.1,1.5,3.8c-1.1,3.2-3,5.2-6.8,4.3
		C177.9,54,177.3,53,176.6,52.1z"/>
	<path class="st17" d="M38.3,95.2c1.7-1,2.4-3.9,5.8-3c-1.5,4.9-3,9.7-4.5,14.5C39.5,102.9,37.4,99.2,38.3,95.2z"/>
	<path class="st18" d="M158.6,81.4c-1.3,4.4-4.4,7.3-7.6,10.2c-0.7-0.2-1.2-0.7-1.5-1.4C152,86.8,152.5,81.1,158.6,81.4z"/>
	<path class="st19" d="M45.5,71.3c0.9,0.7,3.9,0.1,2.2,2.2c-1.5,1.9-3.2,4.6-6.5,4.2C41.8,74.9,41.6,71.7,45.5,71.3z"/>
	<path class="st20" d="M70.1,44.6c0.5,0.8,1,1.7,1.4,2.5c-3.4,0.3-5.4,4.3-9.2,3.4C63.2,46.3,67.2,46.3,70.1,44.6z"/>
	<path class="st21" d="M149.5,90.2c0.5,0.5,1,0.9,1.5,1.4c-1.7,2.9-3.4,5.9-7.3,6.2C145.6,95.3,147.5,92.7,149.5,90.2z"/>
	<path class="st22" d="M58.1,55.3c0.3,0.5,0.7,1,1,1.5c1.1,1.8-0.4,2.1-1.6,2.6c-1.4,0.1-2.8,0.2-4.2,0.3c0.8-1.6,1.7-3.1,2.5-4.7
		C56.7,54.3,57.5,54.4,58.1,55.3z"/>
	<path class="st23" d="M163.2,42.9c0.4,1.6,0.8,3.2,1.2,4.8c-1,0.9-1.9,1.8-2.9,2.7C162.8,48,160,44.8,163.2,42.9z"/>
	<path class="st24" d="M58.1,55.3c-0.7-0.1-1.5-0.2-2.2-0.3c1.1-2,2.8-3.4,4.9-4.4C62.2,53.5,59.6,54.1,58.1,55.3z"/>
	<path class="st25" d="M93,50.6c-4,5.3-7.5,11-6.8,18c0.8,7.4,4.7,13.2,12,15.2c8,2.1,15.1-0.5,20.5-6.9c1.4-1.7,2.5-3.7,4-5.8
		c3.4,10.6-7.3,25.4-17.5,29.1c-11.4,4.1-22.9,1.2-29.3-7.8c-7.4-10.5-6.4-24.9,2.5-34.4c1.5-1.6,3.5-2.9,5.2-4.3
		c2.2-1.3,4.1-2.9,6.5-3.8C91.2,49.5,92.2,49.7,93,50.6z"/>
	<path class="st26" d="M106.8,61.1c4,3.9,7.9,0.8,12.3-0.4c0.7,7.8-2.5,12.9-9.1,16c-5.5,2.6-10.6,1.6-14.5-2.8
		c-4.8-5.4-4.7-11.4-0.7-17.4c2.6-1.6,4.5-4.2,7.5-5.2c1-0.3,2-0.2,2.9,0.4C106.6,54.7,105.2,58.1,106.8,61.1z"/>
	<path class="st27" d="M111.3,50.5c3.5-0.2,5.4,1.5,4.7,4.9c-0.8,3.9-3.9,4.8-7.5,4.2C102.3,54.4,107,52.5,111.3,50.5z"/>
	<path class="st28" d="M111.3,50.5c1.3,3.7-8.3,4.1-2.9,9.1c-0.5,0.5-1.1,1-1.6,1.5c-3.7-2.4-3.6-5.5-1.5-9c1.5-2.8,3.6-2.9,6.1-1.6
		L111.3,50.5z"/>
	<path class="st29" d="M111.4,50.6c-2.4-0.9-4.2,0.4-6.1,1.6c-1,0-1.9,0.1-2.9,0.1c-1.6,0.7-1.9-0.2-1.7-1.5
		C104.2,48.2,107.8,47.2,111.4,50.6z"/>
	<path class="st30" d="M100.7,50.7c0.6,0.5,1.2,1,1.7,1.5c-2.5,1.5-4.3,4.1-7.6,4.2C96,53.8,97.8,51.7,100.7,50.7z"/>
	<path class="st0" d="M93,50.6c-1,0-1.9,0-2.9,0.1c-1.5,0.8-1.8,0-1.7-1.3c1.8-1.1,3.6-2.4,5.9-2c1.6-1,1.6,0,1.6,1.2
		C95,49.3,94,49.9,93,50.6z"/>
	<path class="st31" d="M82.3,44.2c3.6-2.6,7.6-0.9,11.4-1.2c-1.8,0.5-3.6,0.9-5.4,1.4C86.4,44.4,84.3,44.3,82.3,44.2z"/>
	<path class="st32" d="M88.5,49.4c0.6,0.4,1.1,0.9,1.7,1.3c-1.9,1.6-3.9,3-6.5,2.9C84.5,51.3,86.1,49.9,88.5,49.4z"/>
	<path class="st33" d="M96,48.6c-0.5-0.4-1-0.8-1.6-1.2c1.5-1.3,3.2-1.8,5.7-0.7C98.4,47.5,97.2,48,96,48.6z"/>
	<path class="st34" d="M59.7,69.4c-3.5,1-4.9,2.9-7.4,1.3C53.7,68,55.9,68.9,59.7,69.4z"/>
	<path class="st35" d="M57.6,59.4c0.5-0.9,1-1.7,1.6-2.6c1.4,0.4,3.8,0.9,3.2,2.3C61.7,60.5,59.2,59.5,57.6,59.4z"/>
</g>
<g>
	<path class="st9" d="M231.1,38c1.1,0,2.5,0.4,4.2,1.1c0.2,0.1,0.4,0.1,0.5,0.1c0.1,0,0.4-0.1,0.9-0.4c0.2-0.1,0.3-0.1,0.5-0.1
		c0.7,0,1.4,0.7,2.2,2.2c0.8,1.5,1.2,2.9,1.2,4.2c0,0.8-0.2,1.4-0.5,2c-0.3,0.5-0.8,0.8-1.3,0.8c-0.4,0-0.7-0.1-1-0.3
		c-0.3-0.2-0.8-0.9-1.7-2c-1.2-1.6-2.5-2.3-3.7-2.3c-0.6,0-1,0.2-1.4,0.6c-0.3,0.4-0.5,0.9-0.5,1.5c0,1.2,0.8,2.1,2.4,2.7
		c2.1,0.8,3.5,1.5,4.1,1.8c2.6,1.7,3.9,4.2,3.9,7.6c0,3-0.9,5.4-2.7,7.2c-1.8,1.9-4.2,2.9-7.2,2.9c-1.3,0-2.7-0.2-4.2-0.6
		c-1.5-0.4-2.5-0.9-3.2-1.5c-0.5-0.4-0.9-1.4-1.3-2.9c-0.4-1.5-0.6-2.9-0.6-4.4c0-0.7,0.1-1.2,0.3-1.5c0.3-0.4,0.6-0.7,1-0.7
		c0.4,0,0.8,0.3,1.1,0.8c0.2,0.3,0.7,1.3,1.5,2.9c0.4,0.8,1,1.4,1.8,1.9c0.8,0.5,1.7,0.8,2.6,0.8c0.8,0,1.4-0.2,1.9-0.6
		c0.5-0.4,0.7-0.9,0.7-1.5c0-0.6-0.2-1-0.6-1.4c-0.4-0.4-1-0.8-1.8-1.1c-1.5-0.6-2.6-1.2-3.4-1.7s-1.5-1.2-2.2-2
		c-1.6-1.9-2.4-4.1-2.4-6.6c0-1.2,0.2-2.4,0.6-3.6c0.4-1.2,1-2.2,1.8-3C226.5,39,228.6,38,231.1,38z"/>
	<path class="st9" d="M252.2,47.7v9.5c0,2.1,0.1,3.5,0.4,4.2c0.3,0.7,1.1,1.1,2.2,1.1c1.2,0,2.1-0.3,2.8-1c0.7-0.7,1.2-1.8,1.4-3.2
		c0.2-0.9,0.5-1.4,1.1-1.4c0.5,0,1,0.3,1.3,1c0.3,0.7,0.5,1.5,0.5,2.6c0,1.7-0.5,3.6-1.4,5.5c-0.3,0.6-0.6,1-0.8,1.3
		c-0.2,0.2-0.5,0.3-0.8,0.3l-3.4-0.6h-10.8c-0.7,0-1.2-0.1-1.5-0.3c-0.4-0.3-0.6-0.8-0.6-1.4c0-0.4,0.1-0.7,0.2-0.9
		c0.1-0.2,0.5-0.5,1-0.8c0.6-0.4,1-0.9,1.1-1.6c0.1-0.6,0.2-2.2,0.2-5c0-1.3,0-3.1-0.1-5.5c-0.1-2.3-0.1-4-0.1-5.2
		c0-1.1-0.1-1.9-0.2-2.3c-0.1-0.4-0.4-0.7-0.8-0.9c-0.7-0.3-1.1-0.6-1.3-0.8c-0.3-0.3-0.5-0.7-0.5-1.2c0-1,0.6-1.8,1.9-2.3
		c1.1-0.5,2.5-0.7,4.3-0.7c2,0,3.5,0.1,4.5,0.4c1.3,0.4,1.9,1.1,1.9,2.2c0,0.5-0.1,0.8-0.3,1c-0.2,0.2-0.6,0.5-1.2,0.9
		c-0.4,0.2-0.6,0.6-0.7,1.2C252.2,44.5,252.2,45.7,252.2,47.7z"/>
	<path class="st9" d="M274.1,38c2.7,0,5,1,6.9,3.1c1.3,1.4,2.4,3.2,3.3,5.4c0.8,2.2,1.2,4.4,1.2,6.6c0,3.3-0.8,6.2-2.4,8.8
		c-1.4,2.2-3.1,3.8-5.3,4.7c-1.4,0.6-2.7,0.9-4.1,0.9c-1.8,0-3.5-0.5-5.1-1.5c-2-1.2-3.5-3-4.6-5.5c-1.1-2.4-1.6-5-1.6-7.8
		c0-3.3,0.7-6.2,2.1-8.7c1.2-2.2,2.9-3.9,5-4.9C270.8,38.4,272.4,38,274.1,38z M272.6,44c-0.9,0-1.6,0.5-2.1,1.6
		c-0.4,0.8-0.6,1.7-0.6,2.8c0,1.6,0.2,3.4,0.7,5.4c0.5,2.1,1.1,3.9,1.8,5.5c0.3,0.7,0.7,1.2,1.2,1.6c0.5,0.4,0.9,0.6,1.4,0.6
		c0.8,0,1.4-0.4,1.9-1.2c0.5-0.8,0.7-1.8,0.7-3.1c0-1.7-0.2-3.5-0.6-5.4c-0.4-1.9-0.9-3.6-1.6-5c-0.4-0.8-0.8-1.5-1.4-2
		C273.7,44.2,273.2,44,272.6,44z"/>
	<path class="st9" d="M299.5,46l-0.4-1.5c-0.3-0.8-0.6-1.4-1-1.7c-0.7-0.5-1.1-1.2-1.1-2c0-1.8,2-2.7,5.9-2.7c2,0,3.5,0.2,4.5,0.6
		c0.4,0.2,0.6,0.4,0.8,0.7c0.2,0.3,0.3,0.7,0.3,1.1c0,0.3,0,0.6-0.1,0.8c-0.1,0.2-0.4,0.5-0.8,1.1c-0.3,0.3-0.4,0.6-0.4,0.9
		c0,0.5,0.2,1.3,0.6,2.4l0.9,2.5c0.4,1.1,0.7,1.9,0.9,2.2c0.2,0.3,0.4,0.5,0.6,0.5c0.2,0,0.4-0.2,0.6-0.5c0.2-0.4,0.4-1.1,0.7-2.1
		l0.7-2.9c0.2-0.8,0.3-1.5,0.3-1.9c0-0.6-0.2-0.9-0.6-1.1c-0.9-0.4-1.3-1-1.3-2c0-0.8,0.3-1.4,1-1.8c0.7-0.4,1.8-0.5,3.3-0.5
		c1,0,1.8,0.2,2.3,0.5c0.8,0.4,1.2,1.1,1.2,2c0,0.4-0.1,0.7-0.2,1c-0.1,0.3-0.4,0.7-0.8,1.2c-0.3,0.3-0.5,0.7-0.6,1
		c-0.1,0.4-0.4,1.1-0.7,2.2l-2.7,9.7c-1.4,4.5-2.2,7.2-2.4,8c-0.3,0.9-0.6,1.6-0.9,2.3c-0.2,0.5-0.5,0.8-0.8,1
		c-0.3,0.2-0.6,0.3-1.1,0.3c-0.6,0-1.1-0.2-1.5-0.5c-0.4-0.4-0.7-1-1-1.8l-3.1-9.8c-0.2-0.5-0.3-0.9-0.4-1c-0.1-0.1-0.2-0.2-0.3-0.2
		c-0.2,0-0.4,0.2-0.6,0.5c-0.2,0.3-0.4,1.2-0.9,2.7l-2.1,7c-0.4,1.3-0.8,2.1-1.1,2.5c-0.4,0.4-0.9,0.6-1.6,0.6
		c-0.7,0-1.2-0.2-1.5-0.6c-0.4-0.4-0.7-1.1-1-2.2l-5.7-19.6c-0.2-0.8-0.4-1.3-0.5-1.4c-0.1-0.1-0.4-0.4-0.8-0.7
		c-0.5-0.4-0.8-1-0.8-1.8c0-2,1.8-2.9,5.4-2.9c1.8,0,3.2,0.2,4,0.5c0.8,0.3,1.2,1,1.2,2.1c0,0.3,0,0.6-0.1,0.7c0,0.1-0.2,0.5-0.4,1
		c-0.1,0.3-0.2,0.6-0.2,1c0,0.7,0.3,2.1,1,4.3l0.6,2c0.3,0.8,0.4,1.3,0.5,1.5c0.1,0.2,0.2,0.3,0.4,0.3c0.4,0,0.8-0.8,1.2-2.3
		l0.6-2.4c0.1-0.2,0.1-0.3,0.1-0.4C299.6,46.3,299.6,46.1,299.5,46z"/>
</g>
<g>
	<path class="st8" d="M233.4,73.7c2.7,0,5.2,0.8,7.7,2.4c1.2,0.7,2,1.1,2.4,1.1c0.3,0,0.9-0.1,1.6-0.3c0.2-0.1,0.5-0.1,0.8-0.1
		c1,0,1.8,0.6,2.5,1.8c1.8,2.8,2.6,6.4,2.6,10.6c0,3-0.8,5.1-2.3,6.5c-0.8,0.7-1.7,1.1-2.8,1.1c-0.9,0-1.7-0.3-2.3-0.8
		c-0.6-0.5-1.2-1.5-1.7-2.9c-0.8-1.9-1.4-3.3-1.9-4.2c-0.5-0.8-1.1-1.6-1.8-2.3c-1.8-1.7-3.6-2.5-5.6-2.5c-1.9,0-3.4,0.9-4.5,2.7
		c-1.1,1.8-1.7,4.3-1.7,7.3c0,4.2,0.8,8.1,2.4,11.6c2.2,4.7,5.2,7,9.3,7c1.5,0,2.9-0.3,4.4-1c1.5-0.7,2.6-1.5,3.4-2.6
		c0.7-0.9,1.3-1.3,1.7-1.3c0.6,0,1.2,0.4,1.6,1.2c0.5,0.8,0.7,1.8,0.7,2.9c0,1.4-0.3,3-1,4.8c-0.6,1.8-1.4,3.2-2.3,4.2
		c-0.4,0.4-1.2,0.8-2.4,1.1c-0.7,0.2-1.6,0.6-2.8,1.4c-2.7,1.7-5.5,2.6-8.5,2.6c-3.1,0-6.1-0.9-9.1-2.8c-3.5-2.1-6.3-5.4-8.4-9.8
		c-2-4.3-3-8.8-3-13.5c0-5.5,1.3-10.4,3.8-14.9c2.2-3.9,5.1-6.9,8.6-9C227.7,74.5,230.5,73.7,233.4,73.7z"/>
	<path class="st8" d="M274.2,73.7c4.7,0,8.8,1.8,12.3,5.4c2.4,2.5,4.3,5.7,5.8,9.7c1.4,3.9,2.2,7.9,2.2,11.8c0,5.8-1.4,11-4.3,15.5
		c-2.4,3.9-5.6,6.7-9.5,8.4c-2.4,1-4.8,1.5-7.2,1.5c-3.2,0-6.2-0.9-9.1-2.7c-3.5-2.1-6.2-5.4-8.2-9.7c-1.9-4.2-2.9-8.8-2.9-13.8
		c0-5.8,1.2-11,3.7-15.5c2.2-4,5.1-6.9,8.9-8.8C268.4,74.4,271.1,73.7,274.2,73.7z M271.5,84.3c-1.5,0-2.8,0.9-3.6,2.8
		c-0.7,1.4-1,3-1,4.9c0,2.8,0.4,6,1.3,9.6c0.8,3.6,1.9,6.9,3.2,9.7c0.6,1.2,1.3,2.2,2.1,2.9c0.8,0.7,1.7,1.1,2.5,1.1
		c1.4,0,2.5-0.7,3.4-2.1c0.9-1.4,1.3-3.2,1.3-5.5c0-3-0.4-6.2-1.1-9.6c-0.7-3.4-1.6-6.4-2.8-8.8c-0.7-1.5-1.5-2.7-2.4-3.5
		C273.4,84.8,272.5,84.3,271.5,84.3z"/>
	<path class="st8" d="M317.9,73.7c4.7,0,8.8,1.8,12.3,5.4c2.4,2.5,4.3,5.7,5.8,9.7c1.4,3.9,2.2,7.9,2.2,11.8c0,5.8-1.4,11-4.3,15.5
		c-2.4,3.9-5.6,6.7-9.5,8.4c-2.4,1-4.8,1.5-7.2,1.5c-3.2,0-6.2-0.9-9.1-2.7c-3.5-2.1-6.2-5.4-8.2-9.7c-1.9-4.2-2.9-8.8-2.9-13.8
		c0-5.8,1.2-11,3.7-15.5c2.2-4,5.1-6.9,8.9-8.8C312.1,74.4,314.9,73.7,317.9,73.7z M315.3,84.3c-1.5,0-2.8,0.9-3.6,2.8
		c-0.7,1.4-1,3-1,4.9c0,2.8,0.4,6,1.3,9.6c0.8,3.6,1.9,6.9,3.2,9.7c0.6,1.2,1.3,2.2,2.1,2.9c0.8,0.7,1.7,1.1,2.5,1.1
		c1.4,0,2.5-0.7,3.4-2.1c0.9-1.4,1.3-3.2,1.3-5.5c0-3-0.4-6.2-1.1-9.6c-0.7-3.4-1.6-6.4-2.8-8.8c-0.7-1.5-1.5-2.7-2.4-3.5
		C317.1,84.8,316.2,84.3,315.3,84.3z"/>
	<path class="st8" d="M372.3,84.8l-2.9,3.8c-1.1,1.4-1.6,2.6-1.6,3.8c0,0.6,0.1,1.2,0.4,1.8c0.2,0.6,0.7,1.4,1.4,2.5l10.3,15.9
		c0.9,1.4,1.5,2.3,1.9,2.7c0.3,0.4,0.9,0.8,1.6,1.2c1,0.6,1.7,1.2,2.1,1.9c0.4,0.7,0.6,1.6,0.6,2.7c0,2.6-1.4,3.9-4.1,3.9h-10.4
		c-0.7,0-1.3-0.2-1.7-0.6c-0.4-0.4-1.1-1.4-2-3.1c-1.4-2.6-3.3-5.6-5.7-9.1c-1-1.5-1.7-2.4-2.2-2.9c-0.4-0.5-0.8-0.7-1.1-0.7
		c-1.1,0-1.6,1.3-1.6,4c0,2.2,0.3,3.7,1,4.5c0.1,0.1,0.4,0.4,0.9,0.8c1,0.9,1.5,1.9,1.5,3.2c0,1.6-0.8,2.8-2.4,3.5
		c-1.6,0.7-4.3,1-8.1,1c-3.4,0-5.9-0.3-7.4-0.8c-0.7-0.2-1.2-0.7-1.6-1.3c-0.4-0.7-0.6-1.4-0.6-2.2c0-1.3,0.5-2.4,1.6-3.4
		c0.5-0.4,0.8-0.9,1.1-1.5c0.2-0.5,0.4-1.4,0.6-2.7c0.4-2.8,0.5-7,0.5-12.8c0-6.9-0.2-11.8-0.6-14.6c-0.1-1.2-0.3-2-0.6-2.5
		c-0.3-0.5-0.7-1-1.3-1.5c-1-0.8-1.5-1.9-1.5-3.3c0-1.2,0.3-2.1,1-2.8c0.6-0.7,1.7-1.3,3.1-1.6c1.9-0.5,4.2-0.7,7-0.7
		c2.9,0,5,0.4,6.4,1.1c1.2,0.7,1.9,1.9,1.9,3.7c0,0.7-0.1,1.3-0.3,1.7c-0.2,0.4-0.7,1-1.5,1.9c-0.3,0.3-0.6,1.2-0.8,2.5
		c-0.2,1.3-0.4,2.6-0.4,3.8c0,2.1,0.3,3.1,1,3.1c0.4,0,0.8-0.2,1.2-0.7c0.4-0.5,1.2-1.7,2.4-3.7c1.4-2.3,2.1-3.8,2.1-4.7
		c0-0.4-0.2-1.1-0.5-2c-0.2-0.6-0.4-1.2-0.4-1.7c0-1.8,0.7-3.1,2.2-3.8c1.5-0.7,4-1.1,7.5-1.1c2.8,0,4.9,0.2,6.3,0.7
		c1.7,0.6,2.5,1.9,2.5,3.9c0,0.8-0.2,1.5-0.5,2.2c-0.3,0.7-0.8,1.1-1.3,1.3c-0.4,0.2-1.3,0.3-2.7,0.3c-1,0-1.7,0.2-2.2,0.5
		C373.7,83.2,373,83.8,372.3,84.8z"/>
	<path class="st8" d="M392.7,74.8h14.1c2.9,0,4.9-0.1,6.2-0.2c1.3-0.2,2.6-0.5,3.8-1c0.4-0.1,0.7-0.2,0.9-0.2c1,0,1.8,0.7,2.5,2.1
		c1.2,2.2,1.8,4.9,1.8,8.1c0,1.6-0.3,2.9-0.8,3.8c-0.5,0.9-1.2,1.4-2.1,1.4c-0.6,0-1.1-0.2-1.4-0.5c-0.3-0.3-0.8-1.1-1.4-2.2
		c-0.8-1.6-1.8-2.7-3.1-3.3c-1.2-0.6-3.3-0.8-6.1-0.8c-2.1,0-3.4,0.5-3.8,1.5c-0.2,0.5-0.4,1.3-0.4,2.2c0,0.9-0.1,3.2-0.1,7
		c0,1.5,0.2,2.4,0.5,2.7c0.4,0.4,1.3,0.5,2.9,0.5c0.8,0,1.3-0.2,1.7-0.6c0.3-0.4,0.6-1.2,0.7-2.3c0.1-1.4,0.3-2.4,0.4-2.9
		c0.1-0.5,0.4-1,0.8-1.4c0.4-0.4,0.8-0.7,1.3-0.7c0.8,0,1.4,0.5,1.9,1.4c0.4,0.7,0.7,2,1,3.8s0.4,3.7,0.4,5.7c0,3.9-0.4,7.1-1.3,9.5
		c-0.5,1.4-1.2,2-2.3,2c-0.6,0-1.1-0.2-1.3-0.6c-0.2-0.4-0.4-1.3-0.5-2.7c-0.3-2.8-1.5-4.2-3.6-4.2c-0.8,0-1.4,0.3-1.7,1
		c-0.3,0.7-0.5,2-0.5,3.9c0,1.2,0.1,2.6,0.2,4.5c0.1,1.8,0.2,3,0.4,3.6c0.1,0.7,0.6,1.2,1.4,1.5c0.8,0.3,2,0.4,3.8,0.4
		c2.7,0,4.8-0.5,6.2-1.4c1.4-0.9,2.5-2.7,3.4-5.1c0.5-1.4,1-2.4,1.4-2.9c0.4-0.5,0.9-0.7,1.6-0.7c0.8,0,1.4,0.4,1.9,1.3
		s0.8,2,0.8,3.4c0,1.5-0.3,3.3-0.9,5.5c-0.6,2.2-1.3,4.2-2.1,5.9c-0.4,0.8-0.8,1.4-1,1.7c-0.3,0.3-0.6,0.4-1,0.4
		c-0.3,0-0.9-0.1-1.5-0.2c-1.2-0.3-2.7-0.5-4.7-0.6h-23.3c-0.9,0-1.7-0.3-2.2-0.8c-0.5-0.6-0.8-1.3-0.8-2.3c0-0.7,0.1-1.2,0.3-1.5
		c0.2-0.3,0.7-0.7,1.5-1.2c0.5-0.3,1-0.7,1.2-1.2c0.3-0.5,0.5-1.2,0.6-2.1c0.6-3.7,0.9-8.7,0.9-15c0-9.5-0.4-15.5-1.3-17.9
		c-0.2-0.5-0.4-0.8-0.6-1c-0.2-0.2-0.7-0.4-1.4-0.7c-1-0.4-1.6-1.4-1.6-2.8c0-0.8,0.2-1.5,0.5-2.1c0.3-0.6,0.8-1,1.4-1.2
		C389.3,74.9,390.7,74.8,392.7,74.8z"/>
	<path class="st8" d="M443.8,103.9c-0.7,0-1.1,0.3-1.3,0.8c-0.2,0.6-0.3,1.9-0.3,3.9c0,3.1,0.1,5.5,0.4,7.3c0.1,0.5,0.2,0.9,0.4,1.1
		c0.2,0.3,0.5,0.6,1,1c1.1,0.8,1.6,1.9,1.6,3.2c0,1.6-0.8,2.8-2.3,3.4c-1.5,0.7-4.1,1-7.8,1c-6.8,0-10.2-1.7-10.2-5.2
		c0-0.6,0.1-1.1,0.3-1.4c0.2-0.4,0.7-0.9,1.4-1.5c0.8-0.7,1.3-1.6,1.6-2.5c0.3-1,0.5-2.6,0.6-5c0.1-1.7,0.1-8,0.1-18.7
		c0-3.4-0.1-5.7-0.4-7c-0.3-1.2-0.8-2.1-1.6-2.7c-0.8-0.5-1.3-1-1.6-1.4c-0.3-0.4-0.4-1-0.4-1.7c0-0.9,0.3-1.7,0.8-2.4
		c0.5-0.7,1.2-1.2,2.2-1.5c0.8-0.3,1.9-0.4,3.2-0.4c0.6,0,2.1,0.1,4.5,0.4c0.5,0,1.2,0.1,2.2,0.1c1.6,0,3.8-0.1,6.6-0.4
		c1.7-0.2,3-0.3,3.6-0.3c3.9,0,7.2,1.3,9.7,3.8c2.3,2.3,3.5,5.5,3.5,9.5c0,2.3-0.4,4.3-1.2,6.2c-0.8,1.9-1.9,3.2-3.3,4.2
		c-0.6,0.4-0.9,0.9-0.9,1.4c0,0.7,0.4,1.3,1.3,1.7c1.9,0.9,3.3,2.3,4.2,4.2c0.9,1.9,1.5,4.8,1.9,8.7c0.2,1.6,0.4,2.7,0.7,3.1
		c0.3,0.5,1,0.9,2.2,1.4c0.3,0.1,0.6,0.5,0.9,0.9c0.2,0.5,0.4,1,0.4,1.6c0,0.8-0.2,1.5-0.7,2.3c-0.4,0.8-1,1.4-1.7,1.8
		c-1.5,1-3.6,1.4-6.3,1.4c-3.6,0-6.1-1.3-7.7-3.8c-0.7-1.1-1.3-2.6-1.8-4.3c-0.5-1.7-1.1-4.4-1.7-8c-0.4-2.3-1-4-1.6-4.9
		S445,104,443.8,103.9z M442.2,85.1l-0.3,8.6c0,0.1,0,0.2,0,0.3c0,0.9,0.1,1.5,0.3,1.8s0.6,0.4,1.2,0.4c1.6,0,2.8-0.6,3.5-1.7
		c0.7-1.1,1.1-2.9,1.1-5.4c0-4.7-1.3-7.1-3.8-7.1c-0.7,0-1.2,0.2-1.5,0.7C442.4,83.2,442.2,84,442.2,85.1z"/>
</g>
</svg>
