<?xml version="1.0" encoding="utf-8"?>
<!-- Generator: Adobe Illustrator 21.1.0, SVG Export Plug-In . SVG Version: 6.00 Build 0)  -->
<svg version="1.1" id="Layer_1" xmlns="http://www.w3.org/2000/svg" xmlns:xlink="http://www.w3.org/1999/xlink" x="0px" y="0px"
	 viewBox="0 0 257.4 90.5" style="enable-background:new 0 0 257.4 90.5;" xml:space="preserve">
<style type="text/css">
	.st0{fill:#C2986B;}
	.st1{fill:#5B4B43;}
</style>
<g>
	<path class="st0" d="M18.7,1.8c1.1,0,2.5,0.4,4.2,1.1c0.2,0.1,0.4,0.1,0.5,0.1c0.1,0,0.4-0.1,0.9-0.4c0.2-0.1,0.3-0.1,0.5-0.1
		c0.7,0,1.4,0.7,2.2,2.2c0.8,1.5,1.2,2.9,1.2,4.2c0,0.8-0.2,1.4-0.5,2c-0.3,0.5-0.8,0.8-1.3,0.8c-0.4,0-0.7-0.1-1-0.3
		c-0.3-0.2-0.8-0.9-1.7-2C22.4,7.7,21.2,7,20,7c-0.6,0-1,0.2-1.4,0.6c-0.3,0.4-0.5,0.9-0.5,1.5c0,1.2,0.8,2.1,2.4,2.7
		c2.1,0.8,3.5,1.5,4.1,1.8c2.6,1.7,3.9,4.2,3.9,7.6c0,3-0.9,5.4-2.7,7.2c-1.8,1.9-4.2,2.9-7.2,2.9c-1.3,0-2.7-0.2-4.2-0.6
		c-1.5-0.4-2.5-0.9-3.2-1.5c-0.5-0.4-0.9-1.4-1.3-2.9c-0.4-1.5-0.6-2.9-0.6-4.4c0-0.7,0.1-1.2,0.3-1.5c0.3-0.4,0.6-0.7,1-0.7
		c0.4,0,0.8,0.3,1.1,0.8c0.2,0.3,0.7,1.3,1.5,2.9c0.4,0.8,1,1.4,1.8,1.9c0.8,0.5,1.7,0.8,2.6,0.8c0.8,0,1.4-0.2,1.9-0.6
		c0.5-0.4,0.7-0.9,0.7-1.5c0-0.6-0.2-1-0.6-1.4c-0.4-0.4-1-0.8-1.8-1.1c-1.5-0.6-2.6-1.2-3.4-1.7c-0.8-0.5-1.5-1.2-2.2-2
		c-1.6-1.9-2.4-4.1-2.4-6.6c0-1.2,0.2-2.4,0.6-3.6c0.4-1.2,1-2.2,1.8-3C14.1,2.7,16.2,1.8,18.7,1.8z"/>
	<path class="st0" d="M39.7,11.4V21c0,2.1,0.1,3.5,0.4,4.2c0.3,0.7,1.1,1.1,2.2,1.1c1.2,0,2.1-0.3,2.8-1c0.7-0.7,1.2-1.8,1.4-3.2
		c0.2-0.9,0.5-1.4,1.1-1.4c0.5,0,1,0.3,1.3,1c0.3,0.7,0.5,1.5,0.5,2.6c0,1.7-0.5,3.6-1.4,5.5c-0.3,0.6-0.6,1-0.8,1.3
		c-0.2,0.2-0.5,0.3-0.8,0.3L43,30.7H32.1c-0.7,0-1.2-0.1-1.5-0.3C30.2,30,30,29.6,30,28.9c0-0.4,0.1-0.7,0.2-0.9
		c0.1-0.2,0.5-0.5,1-0.8c0.6-0.4,1-0.9,1.1-1.6c0.1-0.6,0.2-2.2,0.2-5c0-1.3,0-3.1-0.1-5.5c-0.1-2.3-0.1-4-0.1-5.2
		c0-1.1-0.1-1.9-0.2-2.3c-0.1-0.4-0.4-0.7-0.8-0.9c-0.7-0.3-1.1-0.6-1.3-0.8c-0.3-0.3-0.5-0.7-0.5-1.2c0-1,0.6-1.8,1.9-2.3
		c1.1-0.5,2.5-0.7,4.3-0.7c2,0,3.5,0.1,4.5,0.4c1.3,0.4,1.9,1.1,1.9,2.2c0,0.5-0.1,0.8-0.3,1c-0.2,0.2-0.6,0.5-1.2,0.9
		c-0.4,0.2-0.6,0.6-0.7,1.2C39.8,8.3,39.7,9.5,39.7,11.4z"/>
	<path class="st0" d="M61.7,1.8c2.7,0,5,1,6.9,3.1c1.3,1.4,2.4,3.2,3.3,5.4c0.8,2.2,1.2,4.4,1.2,6.6c0,3.3-0.8,6.2-2.4,8.8
		c-1.4,2.2-3.1,3.8-5.3,4.7c-1.4,0.6-2.7,0.9-4.1,0.9c-1.8,0-3.5-0.5-5.1-1.5c-2-1.2-3.5-3-4.6-5.5c-1.1-2.4-1.6-5-1.6-7.8
		c0-3.3,0.7-6.2,2.1-8.7c1.2-2.2,2.9-3.9,5-4.9C58.4,2.1,60,1.8,61.7,1.8z M60.2,7.7c-0.9,0-1.6,0.5-2.1,1.6
		c-0.4,0.8-0.6,1.7-0.6,2.8c0,1.6,0.2,3.4,0.7,5.4c0.5,2.1,1.1,3.9,1.8,5.5c0.3,0.7,0.7,1.2,1.2,1.6c0.5,0.4,0.9,0.6,1.4,0.6
		c0.8,0,1.4-0.4,1.9-1.2c0.5-0.8,0.7-1.8,0.7-3.1c0-1.7-0.2-3.5-0.6-5.4c-0.4-1.9-0.9-3.6-1.6-5c-0.4-0.8-0.8-1.5-1.4-2
		C61.3,8,60.7,7.7,60.2,7.7z"/>
	<path class="st0" d="M87.1,9.7l-0.4-1.5c-0.3-0.8-0.6-1.4-1-1.7c-0.7-0.5-1.1-1.2-1.1-2c0-1.8,2-2.7,5.9-2.7c2,0,3.5,0.2,4.5,0.6
		c0.4,0.2,0.6,0.4,0.8,0.7C96,3.6,96.1,4,96.1,4.4c0,0.3,0,0.6-0.1,0.8c-0.1,0.2-0.4,0.5-0.8,1.1c-0.3,0.3-0.4,0.6-0.4,0.9
		c0,0.5,0.2,1.3,0.6,2.4l0.9,2.5c0.4,1.1,0.7,1.9,0.9,2.2c0.2,0.3,0.4,0.5,0.6,0.5c0.2,0,0.4-0.2,0.6-0.5c0.2-0.4,0.4-1.1,0.7-2.1
		l0.7-2.9c0.2-0.8,0.3-1.5,0.3-1.9c0-0.6-0.2-0.9-0.6-1.1c-0.9-0.4-1.3-1-1.3-2c0-0.8,0.3-1.4,1-1.8c0.7-0.4,1.8-0.5,3.3-0.5
		c1,0,1.8,0.2,2.3,0.5c0.8,0.4,1.2,1.1,1.2,2c0,0.4-0.1,0.7-0.2,1c-0.1,0.3-0.4,0.7-0.8,1.2c-0.3,0.3-0.5,0.7-0.6,1
		c-0.1,0.4-0.4,1.1-0.7,2.2l-2.7,9.7c-1.4,4.5-2.2,7.2-2.4,8c-0.3,0.9-0.6,1.6-0.9,2.3c-0.2,0.5-0.5,0.8-0.8,1
		c-0.3,0.2-0.6,0.3-1.1,0.3c-0.6,0-1.1-0.2-1.5-0.5c-0.4-0.4-0.7-1-1-1.8l-3.1-9.8c-0.2-0.5-0.3-0.9-0.4-1c-0.1-0.1-0.2-0.2-0.3-0.2
		c-0.2,0-0.4,0.2-0.6,0.5c-0.2,0.3-0.4,1.2-0.9,2.7l-2.1,7c-0.4,1.3-0.8,2.1-1.1,2.5c-0.4,0.4-0.9,0.6-1.6,0.6
		c-0.7,0-1.2-0.2-1.5-0.6c-0.4-0.4-0.7-1.1-1-2.2L74.8,8.8c-0.2-0.8-0.4-1.3-0.5-1.4C74.3,7.3,74,7,73.5,6.7c-0.5-0.4-0.8-1-0.8-1.8
		c0-2,1.8-2.9,5.4-2.9c1.8,0,3.2,0.2,4,0.5c0.8,0.3,1.2,1,1.2,2.1c0,0.3,0,0.6-0.1,0.7c0,0.1-0.2,0.5-0.4,1c-0.1,0.3-0.2,0.6-0.2,1
		c0,0.7,0.3,2.1,1,4.3l0.6,2c0.3,0.8,0.4,1.3,0.5,1.5c0.1,0.2,0.2,0.3,0.4,0.3c0.4,0,0.8-0.8,1.2-2.3l0.6-2.4
		c0.1-0.2,0.1-0.3,0.1-0.4C87.2,10,87.2,9.9,87.1,9.7z"/>
</g>
<g>
	<path class="st1" d="M20.9,37.5c2.7,0,5.2,0.8,7.7,2.4c1.2,0.7,2,1.1,2.4,1.1c0.3,0,0.9-0.1,1.6-0.3c0.2-0.1,0.5-0.1,0.8-0.1
		c1,0,1.8,0.6,2.5,1.8c1.8,2.8,2.6,6.4,2.6,10.6c0,3-0.8,5.1-2.3,6.5c-0.8,0.7-1.7,1.1-2.8,1.1c-0.9,0-1.7-0.3-2.3-0.8
		c-0.6-0.5-1.2-1.5-1.7-2.9c-0.8-1.9-1.4-3.3-1.9-4.2c-0.5-0.8-1.1-1.6-1.8-2.3c-1.8-1.7-3.6-2.5-5.6-2.5c-1.9,0-3.4,0.9-4.5,2.7
		c-1.1,1.8-1.7,4.3-1.7,7.3c0,4.2,0.8,8.1,2.4,11.6c2.2,4.7,5.2,7,9.3,7c1.5,0,2.9-0.3,4.4-1c1.5-0.7,2.6-1.5,3.4-2.6
		c0.7-0.9,1.3-1.3,1.7-1.3c0.6,0,1.2,0.4,1.6,1.2c0.5,0.8,0.7,1.8,0.7,2.9c0,1.4-0.3,3-1,4.8c-0.6,1.8-1.4,3.2-2.3,4.2
		c-0.4,0.4-1.2,0.8-2.4,1.1c-0.7,0.2-1.6,0.6-2.8,1.4c-2.7,1.7-5.5,2.6-8.5,2.6c-3.1,0-6.1-0.9-9.1-2.8c-3.5-2.1-6.3-5.4-8.4-9.8
		c-2-4.3-3-8.8-3-13.5c0-5.5,1.3-10.4,3.8-14.9c2.2-3.9,5.1-6.9,8.6-9C15.3,38.3,18.1,37.5,20.9,37.5z"/>
	<path class="st1" d="M61.7,37.5c4.7,0,8.8,1.8,12.3,5.4c2.4,2.5,4.3,5.7,5.8,9.7c1.4,3.9,2.2,7.9,2.2,11.8c0,5.8-1.4,11-4.3,15.5
		c-2.4,3.9-5.6,6.7-9.5,8.4c-2.4,1-4.8,1.5-7.2,1.5c-3.2,0-6.2-0.9-9.1-2.7c-3.5-2.1-6.2-5.4-8.2-9.7c-1.9-4.2-2.9-8.8-2.9-13.8
		c0-5.8,1.2-11,3.7-15.5c2.2-4,5.1-6.9,8.9-8.8C55.9,38.1,58.7,37.5,61.7,37.5z M59.1,48.1c-1.5,0-2.8,0.9-3.6,2.8
		c-0.7,1.4-1,3-1,4.9c0,2.8,0.4,6,1.3,9.6c0.8,3.6,1.9,6.9,3.2,9.7c0.6,1.2,1.3,2.2,2.1,2.9c0.8,0.7,1.7,1.1,2.5,1.1
		c1.4,0,2.5-0.7,3.4-2.1c0.9-1.4,1.3-3.2,1.3-5.5c0-3-0.4-6.2-1.1-9.6c-0.7-3.4-1.6-6.4-2.8-8.8c-0.7-1.5-1.5-2.7-2.4-3.5
		C61,48.6,60,48.1,59.1,48.1z"/>
	<path class="st1" d="M105.5,37.5c4.7,0,8.8,1.8,12.3,5.4c2.4,2.5,4.3,5.7,5.8,9.7c1.4,3.9,2.2,7.9,2.2,11.8c0,5.8-1.4,11-4.3,15.5
		c-2.4,3.9-5.6,6.7-9.5,8.4c-2.4,1-4.8,1.5-7.2,1.5c-3.2,0-6.2-0.9-9.1-2.7c-3.5-2.1-6.2-5.4-8.2-9.7c-1.9-4.2-2.9-8.8-2.9-13.8
		c0-5.8,1.2-11,3.7-15.5c2.2-4,5.1-6.9,8.9-8.8C99.7,38.1,102.4,37.5,105.5,37.5z M102.9,48.1c-1.5,0-2.8,0.9-3.6,2.8
		c-0.7,1.4-1,3-1,4.9c0,2.8,0.4,6,1.3,9.6c0.8,3.6,1.9,6.9,3.2,9.7c0.6,1.2,1.3,2.2,2.1,2.9c0.8,0.7,1.7,1.1,2.5,1.1
		c1.4,0,2.5-0.7,3.4-2.1c0.9-1.4,1.3-3.2,1.3-5.5c0-3-0.4-6.2-1.1-9.6c-0.7-3.4-1.6-6.4-2.8-8.8c-0.7-1.5-1.5-2.7-2.4-3.5
		C104.7,48.6,103.8,48.1,102.9,48.1z"/>
	<path class="st1" d="M159.8,48.6l-2.9,3.8c-1.1,1.4-1.6,2.6-1.6,3.8c0,0.6,0.1,1.2,0.4,1.8c0.2,0.6,0.7,1.4,1.4,2.5l10.3,15.9
		c0.9,1.4,1.5,2.3,1.9,2.7c0.3,0.4,0.9,0.8,1.6,1.2c1,0.6,1.7,1.2,2.1,1.9c0.4,0.7,0.6,1.6,0.6,2.7c0,2.6-1.4,3.9-4.1,3.9h-10.4
		c-0.7,0-1.3-0.2-1.7-0.6c-0.4-0.4-1.1-1.4-2-3.1c-1.4-2.6-3.3-5.6-5.7-9.1c-1-1.5-1.7-2.4-2.2-2.9s-0.8-0.7-1.1-0.7
		c-1.1,0-1.6,1.3-1.6,4c0,2.2,0.3,3.7,1,4.5c0.1,0.1,0.4,0.4,0.9,0.8c1,0.9,1.5,1.9,1.5,3.2c0,1.6-0.8,2.8-2.4,3.5
		c-1.6,0.7-4.3,1-8.1,1c-3.4,0-5.9-0.3-7.4-0.8c-0.7-0.2-1.2-0.7-1.6-1.3c-0.4-0.7-0.6-1.4-0.6-2.2c0-1.3,0.5-2.4,1.6-3.4
		c0.5-0.4,0.8-0.9,1.1-1.5c0.2-0.5,0.4-1.4,0.6-2.7c0.4-2.8,0.5-7,0.5-12.8c0-6.9-0.2-11.8-0.6-14.6c-0.1-1.2-0.3-2-0.6-2.5
		c-0.3-0.5-0.7-1-1.3-1.5c-1-0.8-1.5-1.9-1.5-3.3c0-1.2,0.3-2.1,1-2.8c0.6-0.7,1.7-1.3,3.1-1.6c1.9-0.5,4.2-0.7,7-0.7
		c2.9,0,5,0.4,6.4,1.1c1.2,0.7,1.9,1.9,1.9,3.7c0,0.7-0.1,1.3-0.3,1.7c-0.2,0.4-0.7,1-1.5,1.9c-0.3,0.3-0.6,1.2-0.8,2.5
		c-0.2,1.3-0.4,2.6-0.4,3.8c0,2.1,0.3,3.1,1,3.1c0.4,0,0.8-0.2,1.2-0.7c0.4-0.5,1.2-1.7,2.4-3.7c1.4-2.3,2.1-3.8,2.1-4.7
		c0-0.4-0.2-1.1-0.5-2c-0.2-0.6-0.4-1.2-0.4-1.7c0-1.8,0.7-3.1,2.2-3.8c1.5-0.7,4-1.1,7.5-1.1c2.8,0,4.9,0.2,6.3,0.7
		c1.7,0.6,2.5,1.9,2.5,3.9c0,0.8-0.2,1.5-0.5,2.2c-0.3,0.7-0.8,1.1-1.3,1.3c-0.4,0.2-1.3,0.3-2.7,0.3c-1,0-1.7,0.2-2.2,0.5
		C161.2,47,160.6,47.6,159.8,48.6z"/>
	<path class="st1" d="M180.3,38.5h14.1c2.9,0,4.9-0.1,6.2-0.2c1.3-0.2,2.6-0.5,3.8-1c0.4-0.1,0.7-0.2,0.9-0.2c1,0,1.8,0.7,2.5,2.1
		c1.2,2.2,1.8,4.9,1.8,8.1c0,1.6-0.3,2.9-0.8,3.8c-0.5,0.9-1.2,1.4-2.1,1.4c-0.6,0-1.1-0.2-1.4-0.5c-0.3-0.3-0.8-1.1-1.4-2.2
		c-0.8-1.6-1.8-2.7-3.1-3.3c-1.2-0.6-3.3-0.8-6.1-0.8c-2.1,0-3.4,0.5-3.8,1.5c-0.2,0.5-0.4,1.3-0.4,2.2c0,0.9-0.1,3.2-0.1,7
		c0,1.5,0.2,2.4,0.5,2.7c0.4,0.4,1.3,0.5,2.9,0.5c0.8,0,1.3-0.2,1.7-0.6c0.3-0.4,0.6-1.2,0.7-2.3c0.1-1.4,0.3-2.4,0.4-2.9
		c0.1-0.5,0.4-1,0.8-1.4c0.4-0.4,0.8-0.7,1.3-0.7c0.8,0,1.4,0.5,1.9,1.4c0.4,0.7,0.7,2,1,3.8c0.3,1.8,0.4,3.7,0.4,5.7
		c0,3.9-0.4,7.1-1.3,9.5c-0.5,1.4-1.2,2-2.3,2c-0.6,0-1.1-0.2-1.3-0.6c-0.2-0.4-0.4-1.3-0.5-2.7c-0.3-2.8-1.5-4.2-3.6-4.2
		c-0.8,0-1.4,0.3-1.7,1c-0.3,0.7-0.5,2-0.5,3.9c0,1.2,0.1,2.6,0.2,4.5c0.1,1.8,0.2,3,0.4,3.6c0.1,0.7,0.6,1.2,1.4,1.5
		c0.8,0.3,2,0.4,3.8,0.4c2.7,0,4.8-0.5,6.2-1.4c1.4-0.9,2.5-2.7,3.4-5.1c0.5-1.4,1-2.4,1.4-2.9c0.4-0.5,0.9-0.7,1.6-0.7
		c0.8,0,1.4,0.4,1.9,1.3c0.5,0.9,0.8,2,0.8,3.4c0,1.5-0.3,3.3-0.9,5.5c-0.6,2.2-1.3,4.2-2.1,5.9c-0.4,0.8-0.8,1.4-1,1.7
		s-0.6,0.4-1,0.4c-0.3,0-0.9-0.1-1.5-0.2c-1.2-0.3-2.7-0.5-4.7-0.6h-23.3c-0.9,0-1.7-0.3-2.2-0.8c-0.5-0.6-0.8-1.3-0.8-2.3
		c0-0.7,0.1-1.2,0.3-1.5c0.2-0.3,0.7-0.7,1.5-1.2c0.5-0.3,1-0.7,1.2-1.2c0.3-0.5,0.5-1.2,0.6-2.1c0.6-3.7,0.9-8.7,0.9-15
		c0-9.5-0.4-15.5-1.3-17.9c-0.2-0.5-0.4-0.8-0.6-1c-0.2-0.2-0.7-0.4-1.4-0.7c-1-0.4-1.6-1.4-1.6-2.8c0-0.8,0.2-1.5,0.5-2.1
		c0.3-0.6,0.8-1,1.4-1.2C176.8,38.6,178.2,38.5,180.3,38.5z"/>
	<path class="st1" d="M231.4,67.7c-0.7,0-1.1,0.3-1.3,0.8c-0.2,0.6-0.3,1.9-0.3,3.9c0,3.1,0.1,5.5,0.4,7.3c0.1,0.5,0.2,0.9,0.4,1.1
		c0.2,0.3,0.5,0.6,1,1c1.1,0.8,1.6,1.9,1.6,3.2c0,1.6-0.8,2.8-2.3,3.4c-1.5,0.7-4.1,1-7.8,1c-6.8,0-10.2-1.7-10.2-5.2
		c0-0.6,0.1-1.1,0.3-1.4c0.2-0.4,0.7-0.9,1.4-1.5c0.8-0.7,1.3-1.6,1.6-2.5c0.3-1,0.5-2.6,0.6-5c0.1-1.7,0.1-8,0.1-18.7
		c0-3.4-0.1-5.7-0.4-7c-0.3-1.2-0.8-2.1-1.6-2.7c-0.8-0.5-1.3-1-1.6-1.4c-0.3-0.4-0.4-1-0.4-1.7c0-0.9,0.3-1.7,0.8-2.4
		c0.5-0.7,1.2-1.2,2.2-1.5c0.8-0.3,1.9-0.4,3.2-0.4c0.6,0,2.1,0.1,4.5,0.4c0.5,0,1.2,0.1,2.2,0.1c1.6,0,3.8-0.1,6.6-0.4
		c1.7-0.2,3-0.3,3.6-0.3c3.9,0,7.2,1.3,9.7,3.8c2.3,2.3,3.5,5.5,3.5,9.5c0,2.3-0.4,4.3-1.2,6.2c-0.8,1.9-1.9,3.2-3.3,4.2
		c-0.6,0.4-0.9,0.9-0.9,1.4c0,0.7,0.4,1.3,1.3,1.7c1.9,0.9,3.3,2.3,4.2,4.2c0.9,1.9,1.5,4.8,1.9,8.7c0.2,1.6,0.4,2.7,0.7,3.1
		c0.3,0.5,1,0.9,2.2,1.4c0.3,0.1,0.6,0.5,0.9,0.9c0.2,0.5,0.4,1,0.4,1.6c0,0.8-0.2,1.5-0.7,2.3c-0.4,0.8-1,1.4-1.7,1.8
		c-1.5,1-3.6,1.4-6.3,1.4c-3.6,0-6.1-1.3-7.7-3.8c-0.7-1.1-1.3-2.6-1.8-4.3c-0.5-1.7-1.1-4.4-1.7-8c-0.4-2.3-1-4-1.6-4.9
		C233.5,68.2,232.6,67.7,231.4,67.7z M229.8,48.9l-0.3,8.6c0,0.1,0,0.2,0,0.3c0,0.9,0.1,1.5,0.3,1.8c0.2,0.3,0.6,0.4,1.2,0.4
		c1.6,0,2.8-0.6,3.5-1.7c0.7-1.1,1.1-2.9,1.1-5.4c0-4.7-1.3-7.1-3.8-7.1c-0.7,0-1.2,0.2-1.5,0.7C230,46.9,229.8,47.7,229.8,48.9z"/>
</g>
</svg>
