<?xml version="1.0" encoding="utf-8"?>
<!-- Generator: Adobe Illustrator 21.1.0, SVG Export Plug-In . SVG Version: 6.00 Build 0)  -->
<svg version="1.1" id="Layer_1" xmlns="http://www.w3.org/2000/svg" xmlns:xlink="http://www.w3.org/1999/xlink" x="0px" y="0px"
	 viewBox="0 0 202.7 135.3" style="enable-background:new 0 0 202.7 135.3;" xml:space="preserve">
<style type="text/css">
	.st0{fill:#FBE7BF;}
	.st1{fill:#2B2116;}
	.st2{fill:#C19F77;}
	.st3{fill:#2C2116;}
	.st4{fill:#342B20;}
	.st5{fill:#4C4132;}
	.st6{fill:#2F2519;}
	.st7{fill:#493E31;}
	.st8{fill:#5B4B43;}
	.st9{fill:#C2986B;}
	.st10{fill:#C5E5F5;}
	.st11{fill:#A9CEDC;}
	.st12{fill:#ADDBEF;}
	.st13{fill:#AED9EB;}
	.st14{fill:#4E3C2A;}
	.st15{fill:#DFCBA8;}
	.st16{fill:#A9D0E0;}
	.st17{fill:#DBC7A4;}
	.st18{fill:#E9D3AD;}
	.st19{fill:#DAC6A4;}
	.st20{fill:#F7E2BB;}
	.st21{fill:#E9D1AB;}
	.st22{fill:#BCA98D;}
	.st23{fill:#5C6360;}
	.st24{fill:#E2CDA9;}
	.st25{fill:#726659;}
	.st26{fill:#9A8479;}
	.st27{fill:#B9AC93;}
	.st28{fill:#3C3126;}
	.st29{fill:#E7D3AF;}
	.st30{fill:#D7C3A3;}
	.st31{fill:#D8C4A2;}
	.st32{fill:#E3CFAD;}
	.st33{fill:#F0DAB4;}
	.st34{fill:#A18E78;}
	.st35{fill:#837262;}
</style>
<g>
	<path class="st0" d="M39.4,130.8c-1.7-2.1-4-2.9-6.4-3.9C11.4,118.3,2.6,101,1.4,79.1C0.2,55.6,11.6,38.3,31.5,27.5
		C62.4,10.7,95.3-0.7,131,1.4c20.8,1.2,40.4,8.8,55.4,24.1c17.3,17.6,14.8,48.8,5.2,66.6c-7.1,13.1-18.3,22-32.6,26.8
		c-0.8-11.9,0.9-23.1,9.4-32.1c8.1-8.6,8.2-8.7,0-16.7c-5.6-5.5-5.2-13.3,1-19.9c9.9-4.6,10.1-8.7,1.8-15.4
		c-6.2-5-12.2-8.2-19.6-2.9c-3.2,1.9-7,1.4-10.4,2.6c-3.5,1.2-5.8,3.8-7.4,7.1c-2.5,4.4-5.8,8.4-5,14.1c0.6,4.4,2.7,6.9,7.2,7.5
		c7.2,0.9,9.3,3.6,7.1,10.2c-2.2,6.8-7.1,11.9-12.4,16.1c-4.3,3.5-5.9-0.9-5.9-4.3c0.1-7.8-1-15.2-4.1-22.3c-1-3.1-2.7-5.7-5.8-7.1
		C110,44.7,101.7,38,90.5,34.7C54.8,23.6,16.7,59.9,23.9,98.3c1.6,8.6,6.2,15.4,12.4,21.4C39.3,122.6,43.1,125.8,39.4,130.8z"/>
	<path class="st1" d="M121.7,60.8c2.7,4.4,4.3,9.2,4.8,14.3c0.4,4.7,0.1,9.4,0.9,14.4c5.8-6.9,15.2-11.2,14.6-22.2
		c-0.1-1.9,0.4-4.5-3.2-2.9c-4.3,1.9-8.1,1-10.6-3c-3-4.7-2.7-9.7-0.2-14.5c1.4-2.7,3.3-5.1,4.9-7.6c1.3-0.2,1.9,0.7,2.4,1.7
		c0.2,0.7,0.3,1.4,0.2,2.1c-0.4,3.3-2.9,6-2.5,9.5c0.2,1.8,0.4,3.7,2.4,4.4c2.1,0.7,3.3-0.8,4.4-2.2c1.6-2,2.6-4.4,3.6-6.7
		c1.4-2.6,3.9-3.9,6.1-5.5c1.4-1,2.6-2.3,4.4-2.5c3.4,0.4,7.5-3.3,10.1,1.8c0.9,0.9,1.8,1.8,2.7,2.7c0.9,0.9,1.6,1.9,2.3,2.9
		c0.7,1.2,2.3,2,1.8,3.8c-6.1,5.7-5.8,14,0.5,18.4c4.5,3.2,8.8,8.1,3.7,12.3c-12.1,9.8-13.4,23.5-16,36.9
		c-4.7,14.2-16.7,14.7-28.4,14.8c-13.9,0.1-27.8-0.9-41.7-0.9c-12.6,0-25.3,0.7-37.9,0.9c-2.1,0-5.5,1.6-5.8-2.7
		c0.2-0.5,0.6-0.7,1.1-0.6c-1.4-1.5-2.4-0.3-3.6,0.5c-1.2,1.4-2.3,1.1-3.4-0.1c-0.3-2.6,1-5.4-2-7.5C18,109.6,16.5,81.5,28.9,60.1
		c13.2-22.9,41-34.8,62.5-26.7c0.1,3.5-2.2,3.9-4.9,3.9c-8.5-1.4-16.8-0.7-24.9,2c-3.3,0.8-6.4,2.1-8.8,4.6c-0.5,0.4-1,0.8-1.5,1.2
		c-1.9,1.1-3.5,2.5-4.8,4.3c-1.1,1.5-2.1,3.2-3.3,4.7c-3,3.6-5.2,7.7-7.7,11.6c-2,1.9-3.2,4.3-3.3,7.1c-1.4,5-3.6,9.8-2.8,15.2
		c-0.2,3.9,1.2,7.5,1.7,11.2c8.1,18.8,24.5,26.8,45.5,21.3c11.9-3.1,22.6-9.1,32.2-16.8c13.3-10.6,15.2-24.4,10.5-39.8
		C119.5,62.5,119.4,60.8,121.7,60.8z"/>
	<path class="st2" d="M42.7,130.8c1.3-7.5,4.3,1,6.1-1.2c-0.9,2-2.4,1.3-3.7,1.3C44.3,131.8,43.5,131.3,42.7,130.8z"/>
	<path class="st3" d="M87.1,36.2c2-0.1,3.5-1,4.4-2.8c11.4,3.2,20.5,9.1,24.5,21c1.3,1.5,2.6,3.1,2.4,5.3
		c1.3,13.3-1.6,24.9-12.1,34.3c-13.1,11.8-30.4,12.9-42.7,1.7C51,84.4,49.2,63.8,60,50.7c4.7-5.7,9.8-11.1,16.9-13.9
		c1.8-0.7,3.9-0.5,5.7-1.2C84.2,35.5,85.7,35.1,87.1,36.2z"/>
	<path class="st4" d="M170.9,51.2c-1-1-2-2-2.9-3c1.1-1.6,3.5-2.1,4-4.6c-2.6-0.9-3.9,2.1-6.1,1.7c-1-0.6-2-1.2-3-1.8
		c3.7-9.4,1.8-11.5-10-10.9c-1.1-0.4-2-0.9-1.7-2.3c7.2-5.1,12.8-4.8,18.9,1c1.1,1,2,2.8,3.3,3c4.7,1,6.3,4.3,5.9,8.4
		C178.7,47.5,175.9,50.6,170.9,51.2z"/>
	<path class="st5" d="M117.4,58.9c-0.5-1.5-1-3.1-1.4-4.6c4.5-0.2,4.3,3.9,5.8,6.4c-0.4,1-0.9,2-1.3,3
		C117.2,63.5,116.9,61.5,117.4,58.9z"/>
	<path class="st6" d="M134.3,40.8c-0.4-0.5-0.9-1-1.3-1.5c1.3-3.3,3.6-5.5,7.1-6.3c1.5-0.8,1.9,0.1,2.3,1.3
		C140.5,37.5,138.3,40.2,134.3,40.8z"/>
	<path class="st7" d="M141.8,34.4c-0.6-0.5-1.2-0.9-1.7-1.4c3.1-3.1,7.6-0.6,11-2.6c0.6,0.5,1.1,0.9,1.7,1.4c0.3,0.9,0,1.6-0.7,2.1
		C148.8,35.1,145.4,37,141.8,34.4z"/>
	<path class="st8" d="M117.4,58.9c1,1.6,2,3.2,3,4.8c6.8,15.7,3.4,30.5-10.7,41.9c-12.8,10.3-27.3,17.9-44,18.8
		c-13.8,0.8-28.2-5.5-36.7-24.4c-0.3-3.9,3.1-8.1-1.4-11.5c-1.9-6.4,1.6-11.8,3-17.6c1.7-1.9,4.4-3.2,4.2-6.4
		c1.3-4.8,3.7-8.8,7.8-11.6c1.1-0.8,2.3-1.4,3.7-1.5c0.2-0.5,1.7,1,1.1-0.8c-0.6-0.6-0.9-1.3-0.7-2.2c1.1-1.5,2.5-2.8,3.4-4.5
		c0.5,0,1,0,1.5-0.1c2.9-1.8,5.7-3.8,9-4.7c3.7-1.3,7.4-2.6,11.4-3c2,0.1,4.2-0.3,5.7,1.5c-9,6.2-17.6,12.5-21.1,23.8
		c-5.8,18.6,3.2,34.9,22.2,39.4c15.2,3.6,33.6-9.8,37.3-26.1C117.3,69.4,114.7,64,117.4,58.9z"/>
	<path class="st9" d="M148,74.8c5-0.7,10-1.4,15-2.2c3.8-0.6,6.6,1,8.4,3.9c1.9,3-1.3,4.7-3,6.1c-7.6,6.4-9.8,15.1-11.1,24.3
		c-0.5,3.8-1.3,7.5-2.4,11.1c-2.2,6.9-6.9,10.7-14.5,11.6c-10.1,1.1-20.3,1-30.4,1.3c-8.1-1.6-16.3-0.2-24.5-0.8
		c-1.5-0.1-4.1,1.4-4.1-2c13.9-4.5,25.6-12.9,36.8-21.8c5.5-4.4,9.9-10.1,14.8-15.1c2.8-1.8,4.9-4.3,6.9-7
		C142.4,80.9,144.5,77.2,148,74.8z"/>
	<path class="st10" d="M148.8,70.9c-5-0.7-3.1-7.2-4.7-11c-1.4-3.5,9.4-14.7,13-14.6c4.4,0.2,8.6,1.7,8.8,6.4
		C166.4,66.4,162.5,70.9,148.8,70.9z"/>
	<path class="st11" d="M141.8,34.4c3.6-0.4,7.1-0.8,10.7-1.3c1,0.8,1.2,1.9,1.1,3.2c-0.7,2.5-1.3,5.1-2.8,7.4
		c-2.1,1.6-4.3,3.2-6.4,4.8c-5.5,1.5-8.3-1.3-9.9-6.1c-0.1-0.5-0.1-1.1-0.2-1.6C136.5,38.3,138.7,35.8,141.8,34.4z"/>
	<path class="st12" d="M134.5,42.4c2.6,3.2,6,5.1,9.9,6.1c0.5,5.6-3.2,8.7-7.1,11.5c-1.8,1.3-3.5,0.2-4.5-1.4
		c-3.1-4.6-2.2-9,0.5-13.5C133.8,44.3,134.1,43.3,134.5,42.4z"/>
	<path class="st13" d="M152.6,36.3c0-1-0.1-2.1-0.1-3.1c0.1-0.5,0.2-0.9,0.4-1.4c3.1-0.9,6.1-2.1,9.5-0.5c3,1.5,4.8,3.7,5.5,6.7
		c0.9,4-3.1,3.9-4.9,5.6c-1.5-0.6-0.7-6.8-4.7-1.9c-1,1.3-3.2,1.2-4.5-0.7C152.5,39.6,151.1,38.3,152.6,36.3z"/>
	<path class="st14" d="M81.4,128.1c4.5,3.4,9.7,0.9,14.5,1.6c4.7,0.7,9.6-1.2,14.1,1.1c-11.2,0-22.4,0-33.6,0
		c-0.1-0.4-0.2-0.7-0.3-1.1C77.8,129.2,79.6,128.6,81.4,128.1z"/>
	<path class="st15" d="M71.6,37.5c-3.6,1-7.2,1.9-10.8,2.9C59.7,40,59,39.3,59.4,38c9.1-2.8,18.1-6.2,27.7-1.7c-1.3,0-2.6,0.1-4,0.1
		C79.4,37.7,75.4,36.1,71.6,37.5z"/>
	<path class="st16" d="M165.9,45.4c0.4-0.6,0.8-1.3,1.3-1.7c1.9-1.4,2.9-4.6,6-3.6c1.4,0.4,2.1,2.1,1.5,3.8c-1.1,3.2-3,5.2-6.8,4.3
		C167.3,47.3,166.6,46.3,165.9,45.4z"/>
	<path class="st17" d="M27.6,88.6c1.7-1,2.4-3.9,5.8-3c-1.5,4.9-3,9.7-4.5,14.5C28.8,96.2,26.7,92.6,27.6,88.6z"/>
	<path class="st18" d="M148,74.8c-1.3,4.4-4.4,7.3-7.6,10.2c-0.7-0.2-1.2-0.7-1.5-1.4C141.4,80.1,141.8,74.5,148,74.8z"/>
	<path class="st19" d="M34.9,64.6c0.9,0.7,3.9,0.1,2.2,2.2c-1.5,1.9-3.2,4.6-6.5,4.2C31.1,68.3,30.9,65,34.9,64.6z"/>
	<path class="st20" d="M59.4,38c0.5,0.8,1,1.7,1.4,2.5c-3.4,0.3-5.4,4.3-9.2,3.4C52.5,39.6,56.5,39.6,59.4,38z"/>
	<path class="st21" d="M138.8,83.5c0.5,0.5,1,0.9,1.5,1.4c-1.7,2.9-3.4,5.9-7.3,6.2C134.9,88.6,136.9,86.1,138.8,83.5z"/>
	<path class="st22" d="M47.4,48.6c0.3,0.5,0.7,1,1,1.5c1.1,1.8-0.4,2.1-1.6,2.6c-1.4,0.1-2.8,0.2-4.2,0.3c0.8-1.6,1.7-3.1,2.5-4.7
		C46.1,47.6,46.8,47.7,47.4,48.6z"/>
	<path class="st23" d="M152.6,36.3c0.4,1.6,0.8,3.2,1.2,4.8c-1,0.9-1.9,1.8-2.9,2.7C152.1,41.4,149.4,38.1,152.6,36.3z"/>
	<path class="st24" d="M47.4,48.6c-0.7-0.1-1.5-0.2-2.2-0.3c1.1-2,2.8-3.4,4.9-4.4C51.5,46.8,49,47.4,47.4,48.6z"/>
	<path class="st25" d="M82.4,43.9c-4,5.3-7.5,11-6.8,18c0.8,7.4,4.7,13.2,12,15.2c8,2.1,15.1-0.5,20.5-6.9c1.4-1.7,2.5-3.7,4-5.8
		c3.4,10.6-7.3,25.4-17.5,29.1c-11.4,4.1-22.9,1.2-29.3-7.8c-7.4-10.5-6.4-24.9,2.5-34.4c1.5-1.6,3.5-2.9,5.2-4.3
		c2.2-1.3,4.1-2.9,6.5-3.8C80.6,42.8,81.6,43,82.4,43.9z"/>
	<path class="st26" d="M96.1,54.4c4,3.9,7.9,0.8,12.3-0.4c0.7,7.8-2.5,12.9-9.1,16c-5.5,2.6-10.6,1.6-14.5-2.8
		c-4.8-5.4-4.7-11.4-0.7-17.4c2.6-1.6,4.5-4.2,7.5-5.2c1-0.3,2-0.2,2.9,0.4C96,48,94.6,51.4,96.1,54.4z"/>
	<path class="st27" d="M100.6,43.8c3.5-0.2,5.4,1.5,4.7,4.9c-0.8,3.9-3.9,4.8-7.5,4.2C91.7,47.7,96.3,45.8,100.6,43.8z"/>
	<path class="st28" d="M100.6,43.8c1.3,3.7-8.3,4.1-2.9,9.1c-0.5,0.5-1.1,1-1.6,1.5c-3.7-2.4-3.6-5.5-1.5-9c1.5-2.8,3.6-2.9,6.1-1.6
		L100.6,43.8z"/>
	<path class="st29" d="M100.7,43.9c-2.4-0.9-4.2,0.4-6.1,1.6c-1,0-1.9,0.1-2.9,0.1c-1.6,0.7-1.9-0.2-1.7-1.5
		C93.5,41.5,97.1,40.6,100.7,43.9z"/>
	<path class="st30" d="M90,44.1c0.6,0.5,1.2,1,1.7,1.5c-2.5,1.5-4.3,4.1-7.6,4.2C85.4,47.1,87.1,45.1,90,44.1z"/>
	<path class="st0" d="M82.4,43.9c-1,0-1.9,0-2.9,0.1c-1.5,0.8-1.8,0-1.7-1.3c1.8-1.1,3.6-2.4,5.9-2c1.6-1,1.6,0,1.6,1.2
		C84.3,42.6,83.3,43.3,82.4,43.9z"/>
	<path class="st31" d="M71.6,37.5c3.6-2.6,7.6-0.9,11.4-1.2c-1.8,0.5-3.6,0.9-5.4,1.4C75.7,37.7,73.7,37.6,71.6,37.5z"/>
	<path class="st32" d="M77.8,42.7c0.6,0.4,1.1,0.9,1.7,1.3c-1.9,1.6-3.9,3-6.5,2.9C73.8,44.6,75.5,43.3,77.8,42.7z"/>
	<path class="st33" d="M85.3,41.9c-0.5-0.4-1-0.8-1.6-1.2c1.5-1.3,3.2-1.8,5.7-0.7C87.7,40.8,86.5,41.4,85.3,41.9z"/>
	<path class="st34" d="M49,62.7c-3.5,1-4.9,2.9-7.4,1.3C43,61.3,45.2,62.3,49,62.7z"/>
	<path class="st35" d="M46.9,52.7c0.5-0.9,1-1.7,1.6-2.6c1.4,0.4,3.8,0.9,3.2,2.3C51,53.9,48.6,52.8,46.9,52.7z"/>
</g>
</svg>
